<?xml version="1.0" encoding="utf-8"?>
<svg xmlns="http://www.w3.org/2000/svg" enable-background="new 0 0 220.223 327.244" id="Data_analysis" version="1.1" viewBox="0 0 220.223 327.244" x="0" y="0">
  <g>
    <g>
      <ellipse clip-rule="evenodd" cx="110.112" cy="304.286" fill-rule="evenodd" opacity=".12" rx="95.325" ry="8.269"/>
      <g>
        <path clip-rule="evenodd" d="M150.758,20.083c1.109,0.25,2.203,0.543,3.279,0.876l4.71-3.504c4.209,2.429,8.418,4.86,12.626,7.289&#xA;				l-0.681,5.847c0.826,0.765,1.622,1.561,2.387,2.387l5.847-0.681c2.43,4.208,4.86,8.417,7.289,12.625l-3.506,4.713&#xA;				c0.333,1.075,0.627,2.167,0.878,3.276l5.393,2.329c0,4.86,0,9.719,0,14.579l-5.393,2.329c-0.25,1.109-0.544,2.202-0.878,3.278&#xA;				l3.506,4.712c-2.429,4.208-4.859,8.417-7.289,12.625l-5.848-0.681c-0.765,0.826-1.561,1.622-2.387,2.387l0.681,5.848&#xA;				c-4.209,2.429-8.417,4.859-12.626,7.289l-4.712-3.506c-1.075,0.333-2.168,0.626-3.277,0.877l-2.329,5.393&#xA;				c-4.86,0-9.719,0-14.579,0l-2.329-5.393c-1.109-0.251-2.202-0.543-3.277-0.877l-4.711,3.505c-4.208-2.43-8.417-4.86-12.626-7.289&#xA;				l0.682-5.847c-0.826-0.765-1.623-1.561-2.388-2.387l-5.847,0.681c-2.43-4.209-4.859-8.417-7.289-12.626l3.505-4.712&#xA;				c-0.333-1.075-0.627-2.168-0.878-3.277L93.3,69.82c0-4.86,0-9.719,0-14.579l5.392-2.328c0.25-1.109,0.544-2.202,0.878-3.277&#xA;				l-3.505-4.712c2.43-4.208,4.86-8.417,7.289-12.625l5.846,0.681c0.765-0.827,1.562-1.622,2.388-2.388l-0.681-5.847&#xA;				c4.208-2.43,8.417-4.86,12.625-7.29l4.711,3.504c1.076-0.333,2.169-0.626,3.278-0.876l2.329-5.393c4.86,0,9.72,0,14.579,0&#xA;				L150.758,20.083L150.758,20.083z M141.14,46.58c-8.809,0-15.949,7.141-15.949,15.95s7.141,15.95,15.949,15.95&#xA;				c8.809,0,15.95-7.141,15.95-15.95S149.949,46.58,141.14,46.58z" fill="#ebae29" fill-rule="evenodd"/>
        <path clip-rule="evenodd" d="M150.758,20.083c1.109,0.25,2.203,0.543,3.279,0.876l2.821-2.098c7.531,9.984,11.985,22.324,11.985,35.684&#xA;				c0,24.153-14.551,44.977-35.542,54.551l-1.779-4.118c-1.109-0.251-2.202-0.543-3.277-0.876l-4.712,3.505&#xA;				c-4.208-2.43-8.416-4.86-12.625-7.289l0.681-5.847c-0.826-0.765-1.623-1.561-2.388-2.387l-5.847,0.681&#xA;				c-2.43-4.208-4.859-8.417-7.289-12.625l3.505-4.713c-0.333-1.075-0.627-2.168-0.878-3.277L93.3,69.819c0-4.859,0-9.719,0-14.578&#xA;				l5.392-2.329c0.25-1.109,0.544-2.202,0.878-3.277l-3.505-4.712c2.43-4.208,4.86-8.417,7.289-12.625l5.846,0.681&#xA;				c0.765-0.826,1.562-1.622,2.388-2.388l-0.68-5.847c4.208-2.43,8.417-4.86,12.625-7.29l4.711,3.504&#xA;				c1.076-0.333,2.169-0.626,3.278-0.876l2.329-5.393c4.859,0,9.719,0,14.578,0L150.758,20.083L150.758,20.083z M141.14,46.58&#xA;				c-8.809,0-15.949,7.141-15.949,15.95s7.141,15.95,15.949,15.95c8.809,0,15.95-7.141,15.95-15.95S149.949,46.58,141.14,46.58z" fill="#edba32" fill-rule="evenodd"/>
        <path clip-rule="evenodd" d="M180.096,93.957c-0.272-3.068,3.678-9.566,5.218-12.559c0.712-1.385,2.308-3.69,3.872-5.323&#xA;				c0.8-0.836,1.606-1.481,2.158-1.898c0.588-0.444,1.206-0.758,0.645-1.65c-0.457-0.727-1.721-0.832-2.606-0.859&#xA;				c-2.939-0.09-6.083,2.108-7.819,4.185c-0.409,0.49-2.038,2.453-3.247,3.916c-0.493,0.597-1.24,1.889-2.136,1.935&#xA;				c-1.445,0.077-0.43-3.19-0.439-4.263c-0.008-1.026-0.304-1.857-1.423-1.692c-2.084,0.307-2.714,4.25-2.605,6.694&#xA;				c0.065,1.451,0.421,4.877,1.057,7.071C174.431,95.229,174.634,94.673,180.096,93.957z" fill="#edbc9f" fill-rule="evenodd"/>
        <path clip-rule="evenodd" d="M91.809,61.854c2.021-2.325,2.637-9.904,3.147-13.231c0.236-1.54,0.297-4.342-0.011-6.582&#xA;				c-0.158-1.146-0.431-2.141-0.634-2.803c-0.215-0.704-0.532-1.322,0.446-1.715c0.796-0.32,1.882,0.337,2.614,0.834&#xA;				c2.433,1.652,3.688,5.277,3.874,7.978c0.044,0.636,0.211,3.183,0.33,5.077c0.049,0.773-0.104,2.257,0.594,2.821&#xA;				c1.125,0.91,2.221-2.331,2.857-3.194c0.609-0.826,1.337-1.325,2.146-0.535c1.507,1.472-0.297,5.034-1.819,6.949&#xA;				c-0.905,1.137-3.204,3.702-5.007,5.104C95.65,66.208,95.811,65.639,91.809,61.854z" fill="#edbc9f" fill-rule="evenodd"/>
        <path clip-rule="evenodd" d="M91.28,61.591c1.813-1.33,9.133,2.618,7.62,4.062c-6.482,10.27-23.945,40.898-0.594,79.975&#xA;				c6.408,10.511-6.265,40.458-24.3,19.889C58.989,148.392,45.768,101.631,91.28,61.591z" fill="#44793b" fill-rule="evenodd"/>
        <path clip-rule="evenodd" d="M90.975,63.395c-16.909,15.088-29.021,34.572-29.644,57.731c-0.266,9.897,1.839,21.181,6.442,30.706&#xA;				c3.085,6.384,7.37,1.44,12.239-3.295c4.734-4.603,10.13-8.844,8.026-13.738c-10.101-23.493-8.284-47.577,5.478-70.33&#xA;				C92.712,63.998,91.66,63.538,90.975,63.395z" fill="#518f3d" fill-rule="evenodd"/>
        <path clip-rule="evenodd" d="M98.024,145.146c0.095,0.161,0.185,0.321,0.281,0.482c6.408,10.511-6.265,40.458-24.3,19.889&#xA;				c-0.199-0.227-0.398-0.462-0.597-0.7c6.771-12.369,15.283-21.784,21.924-24.535C96.062,142.261,96.968,143.858,98.024,145.146z" fill="#3d6c3a" fill-rule="evenodd"/>
        <path clip-rule="evenodd" d="M45.136,291.89c-0.195-4.113-0.431-9.102-0.626-13.216c-4.028,1.4-8.195,1.968-12.512,1.658&#xA;				c-3.265-0.129-2.786,14.364,0.626,13.216C36.589,291.657,40.771,291.181,45.136,291.89z" fill="#f0ccb3" fill-rule="evenodd"/>
        <path clip-rule="evenodd" d="M37.793,296.8c-1.172,0-2.307-0.032-3.399-0.089c-1.947-8.631-1.63-15.292-1.983-16.662&#xA;				c-0.714-2.781-3.438-4.485-6.084-3.805c-1.636,0.42-2.858,1.653-3.385,3.189l0.14,0.547c2.022,7.873,4.027,15.718,6.042,23.582&#xA;				h14.351v0h0.009c0.265-0.557,0.411-1.162,0.411-1.795C43.896,299.025,41.164,296.8,37.793,296.8z" fill="#3d66b7" fill-rule="evenodd"/>
        <path clip-rule="evenodd" d="M37.793,296.8c-1.172,0-2.307-0.032-3.399-0.089c-1.947-8.631-1.63-15.292-1.983-16.662&#xA;				c-0.195-0.759-0.54-1.436-0.991-2.009c-2.198,3.485-2.878,8.703-2.665,14.349c0.409,10.852,5.575,10.024,15.031,10.325&#xA;				c0.073-0.306,0.111-0.622,0.111-0.945C43.896,299.025,41.164,296.8,37.793,296.8z" fill="#30519f" fill-rule="evenodd"/>
        <path clip-rule="evenodd" d="M42.535,305.036H29.503h-1.246h-0.274l-6.309-24.628c-0.128-0.502,0.176-1.018,0.678-1.147l0.514-0.132&#xA;				l6.26,24.434h14.351v0.53C43.477,304.612,43.053,305.036,42.535,305.036z" fill="#293159" fill-rule="evenodd"/>
        <path clip-rule="evenodd" d="M174.701,288.122c-4.106,0-9.087,0-13.193,0c2.329,2.88,3.85,5.831,4.521,8.857&#xA;				c0.612,2.293,15.127,2.438,13.193,0C176.411,294.127,174.98,291.169,174.701,288.122z" fill="#f0ccb3" fill-rule="evenodd"/>
        <path clip-rule="evenodd" d="M183.559,296.8c-9.838,0-17.042-2.254-18.557-2.254c-2.871,0-5.199,2.214-5.199,4.946&#xA;				c0,1.689,0.89,3.179,2.247,4.072h27.201c0.265-0.557,0.411-1.162,0.411-1.795C189.662,299.025,186.929,296.8,183.559,296.8z" fill="#3d66b7" fill-rule="evenodd"/>
        <path clip-rule="evenodd" d="M183.559,296.8c-9.838,0-17.042-2.254-18.557-2.254c-0.783,0-1.526,0.165-2.192,0.46&#xA;				c5.05,5.35,16.652,7.387,26.742,7.708c0.072-0.306,0.11-0.622,0.11-0.945C189.662,299.025,186.929,296.8,183.559,296.8z" fill="#30519f" fill-rule="evenodd"/>
        <path clip-rule="evenodd" d="M188.3,305.036h-25.624c-0.518,0-0.942-0.424-0.942-0.942v-0.53h27.507v0.53&#xA;				C189.242,304.612,188.818,305.036,188.3,305.036z" fill="#293159" fill-rule="evenodd"/>
        <path clip-rule="evenodd" d="M83.119,272.053c-3.736-21.538-14.396-43.972-6.507-53.408c13.169-15.75,42.239-3.239,38.73,18.767&#xA;				c-3.607,22.621-2.651,68.246-25.664,65.742c-18.097-1.969-35.403-7.435-49.824-9.129c-2.149-2.231-2.984-15.325-1.631-16.797&#xA;				C50.117,274.318,70.825,272.821,83.119,272.053z" fill="#273f8e" fill-rule="evenodd"/>
        <path clip-rule="evenodd" d="M114.527,227.056c1.062,3.113,1.414,6.596,0.815,10.356c-1.151,7.22-1.838,16.783-2.988,26.377&#xA;				c-10.116-4.513-18.83-9.788-23.448-14.471c-11.837-12.005-12.767-31.581-4.961-35.303c3.476-1.658,17.516,7.768,24.406,10.532&#xA;				C110.416,225.375,112.474,226.214,114.527,227.056z" fill="#202e7f" fill-rule="evenodd"/>
        <path clip-rule="evenodd" d="M150.745,255.031c-21.144,4.29-51.587-0.795-61.837-8.42c-11.837-8.805-12.767-28.129-4.961-33.962&#xA;				c3.476-2.597,17.516,3.033,24.406,3.935c19.074,2.495,37.642,6.002,56.839,5.72c13.462-0.198,15.896,7.43,15.846,16.884&#xA;				c-0.094,18.106-3.767,35.513-3.966,49.944c-2.008,2.203-15.011,3.377-16.623,2.066&#xA;				C156.307,279.407,152.784,267.276,150.745,255.031z" fill="#30519f" fill-rule="evenodd"/>
        <path clip-rule="evenodd" d="M172.962,280.031c0.395-4.248,0.911-8.493,1.387-12.692c0.981-8.646,1.879-17.302,1.924-26.013&#xA;				c0.049-9.449-2.452-13.883-12.666-13.733c-18.098,0.265-29.989-3.423-48.295-1.281c-8.628,1.01-20.032,2.096-28.343,1.705&#xA;				c-6.851-0.322-6.008,5.271-5.366,7.281c1.375,4.3,3.914,8.255,7.543,10.954c3.901,2.902,10.324,4.883,14.993,6.053&#xA;				c7.276,1.823,14.978,2.85,22.466,3.192c7.205,0.33,14.802,0.054,21.884-1.383l3.182-0.646l0.533,3.203&#xA;				c1.382,8.297,3.443,16.486,5.909,24.542C161.497,292.257,171.848,292.024,172.962,280.031z" fill="#385fa7" fill-rule="evenodd"/>
        <path clip-rule="evenodd" d="M72.054,219.189c-2.217,8.644,53.203,6.896,51.402-0.814c-3.486-14.917-0.869-23.598,1.725-34.904&#xA;				c2.464-10.734,15.6-35.314-3.96-33.747c-10.374,0.831-19.727,1.547-25.888-9.441c-7.033,3.165-14.846,15.153-19.023,30.312&#xA;				C72.32,185.069,71.799,202.399,72.054,219.189z" fill="#56973e" fill-rule="evenodd"/>
        <path clip-rule="evenodd" d="M124.595,185.99c0.194-0.827,0.39-1.666,0.585-2.519c1.653-7.202,8.11-20.637,6.273-28.226&#xA;				c-3.041-0.364-6.413-1.018-10.233-1.951C108.611,151.46,97.56,180.346,124.595,185.99z" fill="#44793b" fill-rule="evenodd"/>
        <path clip-rule="evenodd" d="M180.665,93.974c-0.278-1.35-1.654-1.144-3.629-1.107c-1.674,0.032-4.026-0.303-3.941,0.757&#xA;				c-0.079,16.358-7.706,31.114-17.087,41.504c-9.577,10.608-17.705,14.189-34.788,14.596c-12.919,1.584-24.21,34.984,5.428,31.617&#xA;				C149.44,178.752,187.852,159.403,180.665,93.974z" fill="#56973e" fill-rule="evenodd"/>
        <path clip-rule="evenodd" d="M176.151,94.868c-0.236,0.011-0.457,0.023-0.628,0.027c-0.257,0.005-0.583-0.008-0.925-0.022&#xA;				c-0.714,15.301-7.64,29.956-17.835,41.249c-11.007,12.191-20.588,15.218-36.868,15.625c-4.101,0.607-7.578,5.84-8.995,9.332&#xA;				c-1.385,3.412-2.177,8.001-0.455,11.437c2.518,5.023,9.481,5.148,14.277,4.604c13.842-1.572,27.112-8.524,36.234-19.056&#xA;				C175.866,140.85,178.31,116.729,176.151,94.868z" fill="#5fa34a" fill-rule="evenodd"/>
        <path clip-rule="evenodd" d="M100.642,224.805c4.476-28.497,11.666-70.861-7.135-83.515c-6.522,4.24-13.378,15.447-17.197,29.304&#xA;				c-3.989,14.474-4.511,31.804-4.256,48.594C70.861,223.84,86.354,225.481,100.642,224.805z" fill="#5fa34a" fill-rule="evenodd"/>
        <g>
          <path clip-rule="evenodd" d="M114.791,135.76c-2.22,4.087-1.301,11.616,3.36,15.102c-10.061,3.053-16.058,0.91-18.745-1.395&#xA;					c0.909-5.941-1.136-11.686,1.008-16.211C103.656,133.462,111.577,135.32,114.791,135.76z" fill="#e8a382" fill-rule="evenodd"/>
          <path clip-rule="evenodd" d="M104.021,151.768c0.009-5.525,1.186-9.807,3.821-12.217c1.206-1.103,3.274-1.448,6.029-1.146&#xA;					c-0.817,4.152,0.502,9.631,4.28,12.456C111.961,152.74,107.31,152.651,104.021,151.768z" fill="#edbc9f" fill-rule="evenodd"/>
          <path clip-rule="evenodd" d="M104.699,109.542c-4.024,2.728-8.593,19.041-5.898,23.8c1.081,1.908,3.929,2.431,6.541,3.184&#xA;					c3.902,1.125,7.986,1.736,10.54,0.004c5.311-3.601,1.957-8.555,0.569-14.467C114.119,112.131,106.969,108.002,104.699,109.542z" fill="#f0ccb3" fill-rule="evenodd"/>
          <path clip-rule="evenodd" d="M100.536,139.938c3.509-3.377,1.633-6.115-0.205-8.277c-1.574-1.852-3.138-3.912-1.252-4.961&#xA;					c1.728-0.962,4.268-1.462,4.075-3.896c-0.128-1.6-1.959-2.481-1.014-5.066c1.834-5.016,5.699-4.28,8.434-5.982&#xA;					c2.589-1.611,2.825-5.975,0.687-9.065c-4.132-5.973-16.691-4.748-18.121,3.335c-0.335,1.892-0.879,2.948-1.474,3.551&#xA;					c-2.229,2.256-4.997-0.798-7.454,3.089c-1.486,2.351,0.61,4.256,0.933,5.662c0.31,1.353,0.648,3.66-1.279,5.13&#xA;					c-1.477,1.126-2.076,2.465-2.157,3.749c-0.256,4.081,2.89,4.779,5.663,6.492c1.922,1.185,3.634,2.707,3.256,4.832&#xA;					C89.029,147.536,101.158,146.999,100.536,139.938z" fill="#293159" fill-rule="evenodd"/>
          <g>
            <path clip-rule="evenodd" d="M98.312,125.337c-2.032,0.57-2.121,2.843-1.739,4.839c0.382,1.996,2.428,3.18,3.822,2.773&#xA;						c0.472-0.138,0.809-0.441,1.033-0.859c-0.452-1.954-0.751-4.033-0.512-5.53C100.381,125.585,99.561,124.987,98.312,125.337z" fill="#f0ccb3" fill-rule="evenodd"/>
            <path clip-rule="evenodd" d="M99.079,126.699c-1.248,0.35-1.303,1.746-1.069,2.972c0.224,1.169,1.377,1.884,2.226,1.731&#xA;						c-0.225-0.355-0.392-0.759-0.477-1.204c-0.232-1.208-0.29-2.517,0.151-3.489C99.675,126.621,99.4,126.609,99.079,126.699z" fill="#e8a382" fill-rule="evenodd"/>
          </g>
          <path clip-rule="evenodd" d="M107.741,137.135c-2.979-8.46-4.176-18.146,1.293-21.855c1.071-0.726,2.321-1.176,3.695-1.413&#xA;					c1.548,2.049,2.92,4.778,3.723,8.195c1.388,5.913,4.742,10.867-0.569,14.468C113.85,137.909,110.849,137.803,107.741,137.135z" fill="#f4ddcc" fill-rule="evenodd"/>
        </g>
        <path clip-rule="evenodd" d="M92.453,285.854c-13.158,9.238-36.543,7.786-54.724-0.466c-0.314-3.752-0.186-7.421,0.494-8.16&#xA;				c11.894-2.91,32.602-4.407,44.896-5.174C91.325,270.286,106.389,276.069,92.453,285.854z" fill="#30519f" fill-rule="evenodd"/>
      </g>
    </g>
  </g>
</svg>